# xmcd
#
# Track frame offsets:
#	150
#	11575
#	26079
#	36983
#	49761
#	64569
#	77339
#	89007
#	105998
#	121572
#	136061
#	149035
#
# Disc length: 2178 seconds
#
# Revision: 0
# Processed by: cddbd v1.5.2PL0 Copyright (c) Steve Scherf et al.
# Submitted via: EZCDAudioConverter 3.1.3.1
#
DISCID=9508800c
DTITLE=Castellina-Pasi - Sony_2
DYEAR=1900
DGENRE=
TTITLE0=La Cumparsita
TTITLE1=Eternamente
TTITLE2=Allegria
TTITLE3=Adios Senora
TTITLE4=Rose di maggio
TTITLE5=Profumo di campagna
TTITLE6=Ciao Ciao
TTITLE7=Parigino
TTITLE8=Una notte per sognare
TTITLE9=Danubio
TTITLE10=Una marcia in più
TTITLE11=Primo amore
EXTD=
EXTT0=
EXTT1=
EXTT2=
EXTT3=
EXTT4=
EXTT5=
EXTT6=
EXTT7=
EXTT8=
EXTT9=
EXTT10=
EXTT11=
PLAYORDER=
